<svg width="235" height="102" viewBox="0 0 235 102" fill="none" xmlns="http://www.w3.org/2000/svg">
<path d="M23.3817 40V39.9211C23.408 39.8554 23.4277 39.7568 23.4409 39.6253C23.454 39.4939 23.4606 39.3755 23.4606 39.2704C23.4606 38.8628 23.4014 38.4159 23.2831 37.9294C23.1779 37.4299 22.9676 36.812 22.6521 36.0758L20.266 30.7121C19.5298 30.6858 18.5504 30.6726 17.3278 30.6726C16.1052 30.6726 14.784 30.6726 13.3642 30.6726C12.3256 30.6726 11.3199 30.6726 10.3471 30.6726C9.38739 30.6726 8.51972 30.6858 7.74409 30.7121L5.47634 35.9181C5.27914 36.4045 5.0688 36.9369 4.84531 37.5153C4.62183 38.0938 4.51008 38.6788 4.51008 39.2704C4.51008 39.4413 4.52323 39.5859 4.54952 39.7042C4.57581 39.8094 4.60211 39.8817 4.6284 39.9211V40H0.605609V39.9211C0.842244 39.6713 1.13804 39.2309 1.49299 38.5999C1.84794 37.9557 2.23576 37.1538 2.65644 36.1941L13.9557 11.1306H15.5333L26.241 35.2279C26.4908 35.7932 26.7472 36.3453 27.0101 36.8843C27.2862 37.4102 27.5425 37.8834 27.7792 38.3041C28.0158 38.7248 28.2261 39.0798 28.4102 39.369C28.5942 39.6582 28.7191 39.8422 28.7849 39.9211V40H23.3817ZM10.6034 28.9768C11.3659 28.9768 12.1481 28.9768 12.9501 28.9768C13.752 28.9636 14.5342 28.957 15.2967 28.957C16.0723 28.9439 16.8151 28.9373 17.525 28.9373C18.2349 28.9242 18.8791 28.911 19.4575 28.8979L13.9163 16.376L8.47371 28.9768H10.6034ZM35.3909 38.2647C36.9422 38.2647 38.3686 38.1989 39.6701 38.0675C40.9715 37.936 42.1087 37.7848 43.0815 37.6139C44.2121 37.4299 45.2441 37.213 46.1775 36.9632L45.6056 40.1578C45.4479 40.1446 45.2112 40.1315 44.8957 40.1183C44.5802 40.1052 44.2253 40.092 43.8309 40.0789C43.4496 40.0657 43.0421 40.0526 42.6083 40.0394C42.1876 40.0394 41.7866 40.0329 41.4054 40.0197C41.0241 40.0197 40.6823 40.0131 40.38 40C40.0907 40 39.8804 40 39.7489 40H31.2301V39.9211C31.309 39.645 31.3813 39.3032 31.447 38.8957C31.5259 38.4882 31.5916 37.982 31.6442 37.3773C31.6968 36.7726 31.7362 36.0561 31.7625 35.2279C31.7888 34.3865 31.8019 33.4071 31.8019 32.2897V19.4522C31.8019 18.3348 31.7888 17.3619 31.7625 16.5337C31.7362 15.6924 31.6968 14.9693 31.6442 14.3646C31.5916 13.7467 31.5259 13.234 31.447 12.8264C31.3813 12.4189 31.309 12.0771 31.2301 11.801V11.7222H35.9628V11.801C35.8839 12.0771 35.805 12.4189 35.7261 12.8264C35.6604 13.234 35.6013 13.7467 35.5487 14.3646C35.5092 14.9693 35.4698 15.6924 35.4303 16.5337C35.4041 17.3619 35.3909 18.3348 35.3909 19.4522V38.2647ZM50.0031 11.7222V11.801C49.9768 11.8668 49.9571 11.9654 49.9439 12.0968C49.9308 12.2283 49.9242 12.3466 49.9242 12.4518C49.9242 12.8593 49.9768 13.3129 50.082 13.8124C50.2003 14.2988 50.4172 14.9101 50.7327 15.6463L59.4685 35.3462L67.9085 15.8041C68.1057 15.3177 68.316 14.7853 68.5395 14.2068C68.763 13.6284 68.8747 13.0434 68.8747 12.4518C68.8747 12.294 68.8616 12.1626 68.8353 12.0574C68.809 11.9391 68.7827 11.8536 68.7564 11.801V11.7222H72.7989V11.801C72.5491 12.0508 72.2468 12.4978 71.8918 13.142C71.5369 13.7861 71.149 14.5815 70.7284 15.528L59.429 40.6113H57.8515L47.1438 16.4943C46.894 15.929 46.6311 15.3834 46.355 14.8576C46.0921 14.3317 45.8423 13.8584 45.6056 13.4378C45.369 13.0039 45.1587 12.6424 44.9746 12.3532C44.7906 12.064 44.6657 11.8799 44.5999 11.801V11.7222H50.0031ZM74.8103 11.7222C76.4536 11.7222 78.0838 11.7156 79.7008 11.7024C81.3309 11.6893 82.823 11.6761 84.1771 11.663C85.5312 11.6367 86.6881 11.6038 87.6477 11.5644C88.6074 11.525 89.2582 11.4724 89.6 11.4066L88.6337 14.0293C88.1999 13.911 87.6938 13.8059 87.1153 13.7138C86.6157 13.635 86.0044 13.5626 85.2814 13.4969C84.5715 13.418 83.7498 13.3786 82.8164 13.3786C82.5009 13.3786 82.1197 13.3917 81.6727 13.418C81.2389 13.4312 80.8182 13.4509 80.4107 13.4772C79.9374 13.5035 79.4575 13.5298 78.9711 13.5561V24.323C80.3252 24.3098 81.5478 24.2704 82.639 24.2046C83.7301 24.1389 84.6569 24.0732 85.4194 24.0074C86.3134 23.9286 87.1022 23.8365 87.7858 23.7314L87.1745 26.5907C86.2674 26.4724 85.3406 26.3606 84.394 26.2555C83.5789 26.1634 82.6916 26.0846 81.7319 26.0188C80.7722 25.94 79.8519 25.9005 78.9711 25.9005V38.2647C80.5224 38.2647 81.9488 38.1989 83.2503 38.0675C84.5518 37.936 85.6889 37.7848 86.6618 37.6139C87.7923 37.4299 88.8243 37.213 89.7577 36.9632L89.1859 40.1578C89.0281 40.1446 88.7915 40.1315 88.476 40.1183C88.1604 40.1052 87.8055 40.092 87.4111 40.0789C87.0299 40.0657 86.6223 40.0526 86.1885 40.0394C85.7678 40.0394 85.3668 40.0329 84.9856 40.0197C84.6044 40.0197 84.2625 40.0131 83.9602 40C83.671 40 83.4606 40 83.3292 40H74.8103V39.9211C74.8892 39.645 74.9615 39.3032 75.0272 38.8957C75.1061 38.4882 75.1718 37.982 75.2244 37.3773C75.277 36.7726 75.3164 36.0561 75.3427 35.2279C75.369 34.3865 75.3822 33.4071 75.3822 32.2897V19.4522C75.3822 18.3348 75.369 17.3619 75.3427 16.5337C75.3164 15.6924 75.277 14.9693 75.2244 14.3646C75.1718 13.7467 75.1061 13.234 75.0272 12.8264C74.9615 12.4189 74.8892 12.0771 74.8103 11.801V11.7222ZM106.401 16.2182H105.967C105.862 15.9158 105.691 15.574 105.454 15.1928C105.231 14.8116 104.929 14.4566 104.547 14.1279C104.179 13.7861 103.726 13.5035 103.187 13.28C102.661 13.0565 102.036 12.9448 101.313 12.9448C100.669 12.9448 100.097 13.0434 99.5978 13.2406C99.0982 13.4378 98.6775 13.7138 98.3357 14.0688C98.0071 14.4237 97.7573 14.8444 97.5864 15.3308C97.4155 15.8172 97.33 16.3563 97.33 16.9478C97.33 17.8944 97.593 18.8015 98.1188 19.6691C98.6578 20.5237 99.3283 21.3716 100.13 22.213C100.932 23.0543 101.8 23.8957 102.733 24.7371C103.667 25.5784 104.534 26.4527 105.336 27.3598C106.138 28.2669 106.802 29.22 107.328 30.2191C107.867 31.2051 108.136 32.2699 108.136 33.4137C108.136 34.2682 107.985 35.1293 107.683 35.9969C107.394 36.8514 106.94 37.6205 106.322 38.3041C105.704 38.9877 104.909 39.5465 103.936 39.9803C102.963 40.401 101.806 40.6113 100.465 40.6113C99.7161 40.6113 98.9996 40.539 98.316 40.3944C97.6455 40.2629 97.0211 40.0986 96.4427 39.9014C95.8774 39.6911 95.3647 39.4676 94.9045 39.2309C94.4576 38.9943 94.0895 38.7774 93.8002 38.5802L94.2538 34.2222H94.7468C94.8914 34.84 95.128 35.4316 95.4567 35.9969C95.7853 36.5491 96.1863 37.0421 96.6596 37.4759C97.146 37.8966 97.6981 38.2384 98.316 38.5013C98.9339 38.7511 99.6109 38.876 100.347 38.876C101.018 38.876 101.616 38.7774 102.142 38.5802C102.681 38.3698 103.141 38.0872 103.522 37.7323C103.903 37.3642 104.192 36.9303 104.39 36.4308C104.6 35.9312 104.705 35.3856 104.705 34.794C104.705 33.9658 104.554 33.2033 104.252 32.5066C103.949 31.7967 103.548 31.1262 103.049 30.4952C102.562 29.8641 102.004 29.2528 101.373 28.6613C100.755 28.0697 100.117 27.4781 99.4597 26.8865C98.8024 26.2818 98.1583 25.6639 97.5272 25.0329C96.9094 24.4018 96.3506 23.7314 95.8511 23.0215C95.3647 22.2984 94.9703 21.5293 94.6679 20.7143C94.3655 19.8861 94.2143 18.979 94.2143 17.993C94.2143 16.9544 94.4115 16.021 94.8059 15.1928C95.2135 14.3514 95.7459 13.635 96.4032 13.0434C97.0737 12.4518 97.8296 11.9982 98.671 11.6827C99.5123 11.3672 100.38 11.2094 101.274 11.2094C101.931 11.2094 102.536 11.262 103.088 11.3672C103.64 11.4724 104.133 11.5973 104.567 11.7419C105.014 11.8865 105.402 12.0311 105.731 12.1757C106.059 12.3203 106.329 12.4386 106.539 12.5307L106.401 16.2182ZM147.595 29.4106C147.109 32.0267 146.07 34.2353 144.479 36.0364C145.82 37.3773 147.194 38.6196 148.601 39.7634C150.008 40.894 151.388 41.8799 152.742 42.7213C154.109 43.5627 155.424 44.22 156.686 44.6933C157.948 45.1665 159.105 45.4032 160.157 45.4032C160.577 45.4032 160.998 45.3637 161.419 45.2848V45.7384C161.261 45.8041 161.051 45.8961 160.788 46.0145C160.538 46.1328 160.222 46.2445 159.841 46.3497C159.473 46.4549 159.033 46.5469 158.52 46.6258C158.02 46.7046 157.448 46.7441 156.804 46.7441C155.779 46.7441 154.668 46.5272 153.472 46.0933C152.288 45.6727 151.059 45.0811 149.784 44.3186C148.509 43.5692 147.214 42.6753 145.899 41.6367C144.598 40.5982 143.323 39.461 142.074 38.2252C140.93 39.0009 139.668 39.599 138.288 40.0197C136.92 40.4404 135.422 40.6507 133.791 40.6507C132.319 40.6507 130.991 40.4667 129.808 40.0986C128.638 39.7305 127.646 39.2046 126.83 38.521C126.015 37.8374 125.384 37.0092 124.937 36.0364C124.504 35.0635 124.287 33.9724 124.287 32.7629C124.287 31.606 124.504 30.5806 124.937 29.6867C125.371 28.7796 125.937 27.9645 126.633 27.2414C127.343 26.5184 128.152 25.8611 129.059 25.2695C129.966 24.6779 130.893 24.106 131.839 23.5539C131.458 22.5679 131.162 21.6082 130.952 20.6748C130.742 19.7414 130.636 18.8475 130.636 17.993C130.636 16.9544 130.801 16.021 131.129 15.1928C131.471 14.3514 131.931 13.6415 132.51 13.0631C133.088 12.4846 133.765 12.0377 134.541 11.7222C135.33 11.4066 136.171 11.2489 137.065 11.2489C137.722 11.2489 138.34 11.3409 138.919 11.525C139.497 11.709 139.997 11.9851 140.417 12.3532C140.851 12.7081 141.193 13.1551 141.443 13.6941C141.692 14.2331 141.817 14.8576 141.817 15.5675C141.817 16.4614 141.627 17.2633 141.245 17.9733C140.877 18.6832 140.384 19.3339 139.767 19.9255C139.162 20.5171 138.465 21.0692 137.676 21.5819C136.887 22.0946 136.072 22.5942 135.231 23.0806C135.652 24.0666 136.151 25.0657 136.73 26.078C137.321 27.0903 137.965 28.1025 138.662 29.1148C139.359 30.1139 140.108 31.0999 140.91 32.0727C141.712 33.0456 142.54 33.9921 143.395 34.9124C144.026 34.0578 144.519 33.085 144.874 31.9939C145.242 30.9027 145.426 29.7064 145.426 28.4049C145.426 27.3006 145.36 26.3804 145.229 25.6442C145.111 24.8948 144.986 24.2572 144.854 23.7314V23.6525H148.404V23.7314C148.312 24.0469 148.239 24.4018 148.187 24.7962C148.147 25.1775 148.101 25.6047 148.049 26.078C147.996 26.5381 147.937 27.0508 147.871 27.6161C147.806 28.1683 147.714 28.7664 147.595 29.4106ZM135.27 38.876C136.348 38.876 137.374 38.7314 138.347 38.4422C139.333 38.1529 140.233 37.7323 141.048 37.1801C140.154 36.2336 139.287 35.2607 138.445 34.2616C137.604 33.2493 136.815 32.2239 136.079 31.1854C135.343 30.1336 134.659 29.0819 134.028 28.0302C133.41 26.9654 132.871 25.9202 132.411 24.8948C131.793 25.3155 131.215 25.7559 130.676 26.216C130.15 26.6762 129.69 27.1823 129.295 27.7344C128.901 28.2866 128.586 28.8913 128.349 29.5486C128.125 30.1928 128.014 30.9027 128.014 31.6783C128.014 32.7038 128.191 33.6569 128.546 34.5377C128.914 35.4185 129.42 36.181 130.065 36.8252C130.709 37.4693 131.471 37.9755 132.352 38.3436C133.246 38.6985 134.219 38.876 135.27 38.876ZM133.791 16.9478C133.791 17.7103 133.877 18.4991 134.048 19.3142C134.219 20.1161 134.455 20.9509 134.758 21.8186C135.402 21.411 136 20.9903 136.552 20.5565C137.118 20.1227 137.604 19.656 138.011 19.1564C138.432 18.6437 138.761 18.0981 138.997 17.5197C139.234 16.9413 139.352 16.3037 139.352 15.6069C139.352 15.2125 139.3 14.8444 139.195 14.5026C139.103 14.1477 138.958 13.8387 138.761 13.5758C138.564 13.2997 138.307 13.0894 137.992 12.9448C137.689 12.787 137.334 12.7081 136.927 12.7081C135.875 12.7081 135.086 13.0828 134.561 13.8321C134.048 14.5815 133.791 15.6201 133.791 16.9478ZM56.412 78.4781C57.7003 78.7147 58.8769 78.741 59.9418 78.557C61.0198 78.3598 61.94 77.9522 62.7025 77.3343C63.4781 76.7033 64.0763 75.8554 64.497 74.7905C64.9308 73.7257 65.1477 72.4242 65.1477 70.8861C65.1477 69.8212 65.036 68.8549 64.8125 67.9873C64.589 67.1065 64.2538 66.3637 63.8068 65.759C63.373 65.1411 62.8208 64.6678 62.1503 64.3392C61.4799 63.9974 60.6977 63.8264 59.8037 63.8264C59.2384 63.8264 58.7454 63.8527 58.3248 63.9053C57.9041 63.9448 57.5491 63.9908 57.2599 64.0434C56.9181 64.1091 56.6354 64.1814 56.412 64.2603V78.4781ZM52.2511 62.7222C52.5141 62.7484 52.7901 62.7747 53.0794 62.801C53.3291 62.8273 53.6052 62.847 53.9076 62.8602C54.2231 62.8602 54.5452 62.8602 54.8738 62.8602C55.3865 62.8602 56.0767 62.801 56.9444 62.6827C57.8252 62.5513 58.9426 62.4855 60.2967 62.4855C61.5588 62.4855 62.7222 62.6696 63.7871 63.0377C64.8651 63.4058 65.7985 63.9448 66.5872 64.6547C67.376 65.3646 67.9873 66.2322 68.4212 67.2577C68.8681 68.2699 69.0916 69.4268 69.0916 70.7283C69.0916 72.4768 68.7433 73.9886 68.0465 75.2638C67.3497 76.539 66.4163 77.571 65.2463 78.3598C64.0763 79.1485 62.7288 79.6875 61.2038 79.9768C59.6788 80.2528 58.0815 80.266 56.412 80.0162V83.2897C56.412 84.4071 56.4251 85.3865 56.4514 86.2279C56.4908 87.0561 56.5303 87.7726 56.5697 88.3773C56.6223 88.982 56.6815 89.4882 56.7472 89.8957C56.8261 90.3032 56.9049 90.645 56.9838 90.9211V91H52.2511V90.9211C52.33 90.645 52.4023 90.3032 52.468 89.8957C52.5469 89.4882 52.6127 88.982 52.6652 88.3773C52.7178 87.7726 52.7573 87.0561 52.7836 86.2279C52.8099 85.3865 52.823 84.4071 52.823 83.2897V70.4522C52.823 69.3348 52.8099 68.3619 52.7836 67.5337C52.7573 66.6924 52.7178 65.9693 52.6652 65.3646C52.6127 64.7467 52.5469 64.234 52.468 63.8264C52.4023 63.4189 52.33 63.0771 52.2511 62.801V62.7222ZM73.1341 90.9211C73.213 90.645 73.2853 90.3032 73.3511 89.8957C73.4168 89.4882 73.4759 88.982 73.5285 88.3773C73.5811 87.7726 73.6206 87.0561 73.6468 86.2279C73.6731 85.3865 73.6863 84.4071 73.6863 83.2897V70.4522C73.6863 69.3348 73.6731 68.3619 73.6468 67.5337C73.6206 66.6924 73.5811 65.9693 73.5285 65.3646C73.4759 64.7467 73.4168 64.234 73.3511 63.8264C73.2853 63.4189 73.213 63.0771 73.1341 62.801V62.7222H77.8471V62.801C77.7682 63.0771 77.6894 63.4189 77.6105 63.8264C77.5447 64.234 77.4856 64.7467 77.433 65.3646C77.3936 65.9693 77.3541 66.6924 77.3147 67.5337C77.2884 68.3619 77.2752 69.3348 77.2752 70.4522V83.2897C77.2752 84.4071 77.2884 85.3865 77.3147 86.2279C77.3541 87.0561 77.3936 87.7726 77.433 88.3773C77.4856 88.982 77.5447 89.4882 77.6105 89.8957C77.6894 90.3032 77.7682 90.645 77.8471 90.9211V91H73.1341V90.9211ZM82.284 90.9211C82.4286 90.7108 82.593 90.4018 82.777 89.9943C82.9611 89.5736 83.1057 89.0478 83.2108 88.4167C83.3554 87.4965 83.5132 86.4645 83.6841 85.3208C83.8682 84.1639 84.0522 82.9544 84.2363 81.6924C84.4335 80.4303 84.6241 79.142 84.8081 77.8273C85.0053 76.4996 85.1894 75.1981 85.3603 73.9229C85.5443 72.6345 85.7152 71.3988 85.873 70.2156C86.0439 69.0193 86.1951 67.9281 86.3265 66.9421C86.458 65.9562 86.5632 65.1016 86.642 64.3786C86.7341 63.6424 86.7998 63.0903 86.8392 62.7222H89.3436L101.747 85.9124L114.052 62.7222H115.926L119.16 86.149C119.252 86.8852 119.35 87.5162 119.455 88.0421C119.561 88.5679 119.666 89.0215 119.771 89.4027C119.876 89.7708 119.975 90.0798 120.067 90.3295C120.172 90.5662 120.27 90.7634 120.362 90.9211V91H115.393V90.9211C115.459 90.7765 115.518 90.5399 115.571 90.2112C115.636 89.8826 115.669 89.4882 115.669 89.028C115.669 88.8571 115.663 88.6862 115.65 88.5153C115.636 88.3313 115.617 88.1341 115.59 87.9237L113.086 69.0324L101.451 90.9211L100.091 90.7634L88.3774 68.8352C87.9172 71.9509 87.5163 74.83 87.1745 77.4724C87.0299 78.603 86.8853 79.7336 86.7406 80.8641C86.596 81.9816 86.4646 83.0267 86.3462 83.9996C86.2411 84.9724 86.1556 85.8335 86.0899 86.5828C86.0242 87.319 85.9913 87.8646 85.9913 88.2195C85.9913 88.6665 86.0044 89.0609 86.0307 89.4027C86.057 89.7445 86.0833 90.0337 86.1096 90.2704C86.1491 90.5465 86.1885 90.7897 86.2279 91H82.284V90.9211ZM124.819 62.7222C126.462 62.7222 128.093 62.7156 129.71 62.7024C131.34 62.6893 132.832 62.6761 134.186 62.663C135.54 62.6367 136.697 62.6038 137.657 62.5644C138.616 62.525 139.267 62.4724 139.609 62.4066L138.643 65.0293C138.209 64.911 137.703 64.8059 137.124 64.7138C136.625 64.635 136.013 64.5626 135.29 64.4969C134.58 64.418 133.759 64.3786 132.825 64.3786C132.51 64.3786 132.128 64.3917 131.682 64.418C131.248 64.4312 130.827 64.4509 130.419 64.4772C129.946 64.5035 129.466 64.5298 128.98 64.5561V75.323C130.334 75.3098 131.557 75.2704 132.648 75.2046C133.739 75.1389 134.666 75.0732 135.428 75.0074C136.322 74.9286 137.111 74.8365 137.795 74.7314L137.183 77.5907C136.276 77.4724 135.349 77.3606 134.403 77.2555C133.588 77.1634 132.7 77.0846 131.741 77.0188C130.781 76.94 129.861 76.9005 128.98 76.9005V89.2647C130.531 89.2647 131.958 89.1989 133.259 89.0675C134.561 88.936 135.698 88.7848 136.671 88.6139C137.801 88.4299 138.833 88.213 139.767 87.9632L139.195 91.1578C139.037 91.1446 138.8 91.1315 138.485 91.1183C138.169 91.1052 137.814 91.092 137.42 91.0789C137.039 91.0657 136.631 91.0526 136.197 91.0394C135.777 91.0394 135.376 91.0329 134.994 91.0197C134.613 91.0197 134.271 91.0131 133.969 91C133.68 91 133.469 91 133.338 91H124.819V90.9211C124.898 90.645 124.97 90.3032 125.036 89.8957C125.115 89.4882 125.181 88.982 125.233 88.3773C125.286 87.7726 125.325 87.0561 125.352 86.2279C125.378 85.3865 125.391 84.4071 125.391 83.2897V70.4522C125.391 69.3348 125.378 68.3619 125.352 67.5337C125.325 66.6924 125.286 65.9693 125.233 65.3646C125.181 64.7467 125.115 64.234 125.036 63.8264C124.97 63.4189 124.898 63.0771 124.819 62.801V62.7222ZM145.722 62.7222L166.033 84.3348V70.4522C166.033 69.3348 166.02 68.3619 165.994 67.5337C165.967 66.6924 165.928 65.9693 165.875 65.3646C165.823 64.7467 165.757 64.234 165.678 63.8264C165.612 63.4189 165.54 63.0771 165.461 62.801V62.7222H168.971V62.801C168.892 63.0771 168.82 63.4189 168.754 63.8264C168.689 64.234 168.629 64.7467 168.577 65.3646C168.524 65.9693 168.485 66.6924 168.458 67.5337C168.432 68.3619 168.419 69.3348 168.419 70.4522V91.3944H167.729L147.418 69.8015V83.2897C147.418 84.4071 147.431 85.3865 147.457 86.2279C147.483 87.0561 147.523 87.7726 147.575 88.3773C147.628 88.982 147.687 89.4882 147.753 89.8957C147.819 90.3032 147.891 90.645 147.97 90.9211V91H144.46V90.9211C144.539 90.645 144.611 90.3032 144.677 89.8957C144.756 89.4882 144.821 88.982 144.874 88.3773C144.926 87.7726 144.966 87.0561 144.992 86.2279C145.018 85.3865 145.032 84.4071 145.032 83.2897V70.4522C145.032 69.3348 145.018 68.3619 144.992 67.5337C144.966 66.6924 144.926 65.9693 144.874 65.3646C144.821 64.7467 144.756 64.234 144.677 63.8264C144.611 63.4189 144.539 63.0771 144.46 62.801V62.7222H145.722ZM181.907 64.4575C180.356 64.4575 178.956 64.5298 177.707 64.6744C176.458 64.8059 175.38 64.9505 174.473 65.1082C173.421 65.3054 172.481 65.5223 171.653 65.759L172.225 62.5644C172.383 62.5775 172.619 62.5907 172.935 62.6038C173.25 62.617 173.599 62.6301 173.98 62.6433C174.374 62.6564 174.782 62.6696 175.203 62.6827C175.636 62.6827 176.044 62.6893 176.425 62.7024C176.806 62.7024 177.142 62.709 177.431 62.7222C177.733 62.7222 177.95 62.7222 178.082 62.7222H189.341C189.473 62.7222 189.683 62.7222 189.973 62.7222C190.275 62.709 190.617 62.7024 190.998 62.7024C191.379 62.6893 191.78 62.6827 192.201 62.6827C192.635 62.6696 193.042 62.6564 193.423 62.6433C193.818 62.6301 194.173 62.617 194.488 62.6038C194.804 62.5907 195.04 62.5775 195.198 62.5644L195.77 65.759C194.929 65.5223 193.982 65.3054 192.93 65.1082C192.023 64.9505 190.945 64.8059 189.696 64.6744C188.448 64.5298 187.047 64.4575 185.496 64.4575V83.2897C185.496 84.4071 185.509 85.3865 185.536 86.2279C185.575 87.0561 185.614 87.7726 185.654 88.3773C185.707 88.982 185.766 89.4882 185.831 89.8957C185.91 90.3032 185.989 90.645 186.068 90.9211V91H181.355V90.9211C181.434 90.645 181.506 90.3032 181.572 89.8957C181.638 89.4882 181.697 88.982 181.749 88.3773C181.802 87.7726 181.841 87.0561 181.868 86.2279C181.894 85.3865 181.907 84.4071 181.907 83.2897V64.4575ZM198.61 62.7222C200.253 62.7222 201.883 62.7156 203.5 62.7024C205.13 62.6893 206.622 62.6761 207.976 62.663C209.331 62.6367 210.487 62.6038 211.447 62.5644C212.407 62.525 213.058 62.4724 213.399 62.4066L212.433 65.0293C211.999 64.911 211.493 64.8059 210.915 64.7138C210.415 64.635 209.804 64.5626 209.081 64.4969C208.371 64.418 207.549 64.3786 206.616 64.3786C206.3 64.3786 205.919 64.3917 205.472 64.418C205.038 64.4312 204.618 64.4509 204.21 64.4772C203.737 64.5035 203.257 64.5298 202.771 64.5561V75.323C204.125 75.3098 205.347 75.2704 206.438 75.2046C207.53 75.1389 208.456 75.0732 209.219 75.0074C210.113 74.9286 210.902 74.8365 211.585 74.7314L210.974 77.5907C210.067 77.4724 209.14 77.3606 208.193 77.2555C207.378 77.1634 206.491 77.0846 205.531 77.0188C204.572 76.94 203.651 76.9005 202.771 76.9005V89.2647C204.322 89.2647 205.748 89.1989 207.05 89.0675C208.351 88.936 209.488 88.7848 210.461 88.6139C211.592 88.4299 212.624 88.213 213.557 87.9632L212.985 91.1578C212.827 91.1446 212.591 91.1315 212.275 91.1183C211.96 91.1052 211.605 91.092 211.21 91.0789C210.829 91.0657 210.422 91.0526 209.988 91.0394C209.567 91.0394 209.166 91.0329 208.785 91.0197C208.404 91.0197 208.062 91.0131 207.76 91C207.47 91 207.26 91 207.129 91H198.61V90.9211C198.689 90.645 198.761 90.3032 198.827 89.8957C198.905 89.4882 198.971 88.982 199.024 88.3773C199.076 87.7726 199.116 87.0561 199.142 86.2279C199.168 85.3865 199.182 84.4071 199.182 83.2897V70.4522C199.182 69.3348 199.168 68.3619 199.142 67.5337C199.116 66.6924 199.076 65.9693 199.024 65.3646C198.971 64.7467 198.905 64.234 198.827 63.8264C198.761 63.4189 198.689 63.0771 198.61 62.801V62.7222ZM222.569 89.2647C224.12 89.2647 225.547 89.1989 226.848 89.0675C228.15 88.936 229.287 88.7848 230.26 88.6139C231.39 88.4299 232.422 88.213 233.356 87.9632L232.784 91.1578C232.626 91.1446 232.389 91.1315 232.074 91.1183C231.758 91.1052 231.403 91.092 231.009 91.0789C230.628 91.0657 230.22 91.0526 229.786 91.0394C229.366 91.0394 228.965 91.0329 228.583 91.0197C228.202 91.0197 227.86 91.0131 227.558 91C227.269 91 227.058 91 226.927 91H218.408V90.9211C218.487 90.645 218.559 90.3032 218.625 89.8957C218.704 89.4882 218.77 88.982 218.822 88.3773C218.875 87.7726 218.914 87.0561 218.941 86.2279C218.967 85.3865 218.98 84.4071 218.98 83.2897V70.4522C218.98 69.3348 218.967 68.3619 218.941 67.5337C218.914 66.6924 218.875 65.9693 218.822 65.3646C218.77 64.7467 218.704 64.234 218.625 63.8264C218.559 63.4189 218.487 63.0771 218.408 62.801V62.7222H223.141V62.801C223.062 63.0771 222.983 63.4189 222.904 63.8264C222.838 64.234 222.779 64.7467 222.727 65.3646C222.687 65.9693 222.648 66.6924 222.608 67.5337C222.582 68.3619 222.569 69.3348 222.569 70.4522V89.2647Z" fill="#FDFDFD"/>
<circle cx="30.4479" cy="83.8564" r="5.88958" fill="#FDFDFD"/>
<circle cx="6.88958" cy="83.8564" r="5.88958" fill="#FDFDFD"/>
<circle cx="18.6688" cy="64.7152" r="5.88958" fill="#FDFDFD"/>
</svg>
