<svg width="128" height="32" viewBox="0 0 128 32" fill="none" xmlns="http://www.w3.org/2000/svg" xmlns:xlink="http://www.w3.org/1999/xlink">
<rect width="128" height="32" transform="matrix(1 0 0 -1 0 32)" fill="url(#pattern0_218_216)"/>
<defs>
<pattern id="pattern0_218_216" patternUnits="userSpaceOnUse" patternTransform="matrix(128 0 0 128 0 0)" preserveAspectRatio="none" viewBox="0 0 128 128" width="1" height="1">
<g id="pattern0_218_216_inner">
<g clip-path="url(#clip0_218_216)">
<path d="M0 0C17.664 0 32 14.336 32 32C32 49.664 17.664 64 0 64L0 0ZM32 32C32 14.336 46.336 0 64 0L64 64C46.336 64 32 49.664 32 32ZM64 64C81.664 64 96 78.336 96 96C96 113.664 81.664 128 64 128L64 64ZM96 96C96 78.336 110.336 64 128 64L128 128C110.336 128 96 113.664 96 96Z" fill="#5D1B1B"/>
<path d="M0 64L64 64C64 81.664 49.664 96 32 96C14.336 96 0 81.664 0 64ZM32 96C49.664 96 64 110.336 64 128L0 128C0 110.336 14.336 96 32 96ZM64 64C64 46.336 78.336 32 96 32C113.664 32 128 46.336 128 64L64 64ZM96 32C78.336 32 64 17.664 64 0L128 0C128 17.664 113.664 32 96 32Z" fill="#250B0B"/>
</g>
</g>
</pattern><clipPath id="clip0_218_216">
<rect width="128" height="128" fill="white" transform="matrix(0 1 1 0 0 0)"/>
</clipPath>
</defs>
</svg>
